<?xml version="1.0" encoding="UTF-8" standalone="no"?>
<svg width="1200" height="630" viewBox="0 0 1200 630" xmlns="http://www.w3.org/2000/svg">
  <!-- 배경 -->
  <rect width="1200" height="630" fill="#4A90E2" />
  
  <!-- 스도쿠 그리드 배경 -->
  <rect x="150" y="115" width="400" height="400" fill="#FFFFFF" rx="10" ry="10" />
  
  <!-- 스도쿠 그리드 라인 -->
  <!-- 수직선 -->
  <line x1="150" y1="115" x2="150" y2="515" stroke="#000000" stroke-width="4" />
  <line x1="194" y1="115" x2="194" y2="515" stroke="#000000" stroke-width="1" />
  <line x1="238" y1="115" x2="238" y2="515" stroke="#000000" stroke-width="1" />
  <line x1="282" y1="115" x2="282" y2="515" stroke="#000000" stroke-width="4" />
  <line x1="326" y1="115" x2="326" y2="515" stroke="#000000" stroke-width="1" />
  <line x1="370" y1="115" x2="370" y2="515" stroke="#000000" stroke-width="1" />
  <line x1="414" y1="115" x2="414" y2="515" stroke="#000000" stroke-width="4" />
  <line x1="458" y1="115" x2="458" y2="515" stroke="#000000" stroke-width="1" />
  <line x1="502" y1="115" x2="502" y2="515" stroke="#000000" stroke-width="1" />
  <line x1="550" y1="115" x2="550" y2="515" stroke="#000000" stroke-width="4" />
  
  <!-- 수평선 -->
  <line x1="150" y1="115" x2="550" y2="115" stroke="#000000" stroke-width="4" />
  <line x1="150" y1="159" x2="550" y2="159" stroke="#000000" stroke-width="1" />
  <line x1="150" y1="203" x2="550" y2="203" stroke="#000000" stroke-width="1" />
  <line x1="150" y1="247" x2="550" y2="247" stroke="#000000" stroke-width="4" />
  <line x1="150" y1="291" x2="550" y2="291" stroke="#000000" stroke-width="1" />
  <line x1="150" y1="335" x2="550" y2="335" stroke="#000000" stroke-width="1" />
  <line x1="150" y1="379" x2="550" y2="379" stroke="#000000" stroke-width="4" />
  <line x1="150" y1="423" x2="550" y2="423" stroke="#000000" stroke-width="1" />
  <line x1="150" y1="467" x2="550" y2="467" stroke="#000000" stroke-width="1" />
  <line x1="150" y1="515" x2="550" y2="515" stroke="#000000" stroke-width="4" />
  
  <!-- 샘플 숫자 -->
  <text x="172" y="145" font-family="Arial" font-size="28" font-weight="bold" text-anchor="middle" fill="#000000">5</text>
  <text x="216" y="145" font-family="Arial" font-size="28" font-weight="bold" text-anchor="middle" fill="#000000">3</text>
  <text x="304" y="145" font-family="Arial" font-size="28" font-weight="bold" text-anchor="middle" fill="#000000">7</text>
  <text x="172" y="189" font-family="Arial" font-size="28" font-weight="bold" text-anchor="middle" fill="#000000">6</text>
  <text x="348" y="189" font-family="Arial" font-size="28" font-weight="bold" text-anchor="middle" fill="#000000">9</text>
  <text x="436" y="189" font-family="Arial" font-size="28" font-weight="bold" text-anchor="middle" fill="#000000">5</text>
  <text x="216" y="233" font-family="Arial" font-size="28" font-weight="bold" text-anchor="middle" fill="#000000">9</text>
  <text x="260" y="233" font-family="Arial" font-size="28" font-weight="bold" text-anchor="middle" fill="#000000">8</text>
  <text x="392" y="233" font-family="Arial" font-size="28" font-weight="bold" text-anchor="middle" fill="#000000">6</text>
  <text x="216" y="277" font-family="Arial" font-size="28" font-weight="bold" text-anchor="middle" fill="#000000">8</text>
  <text x="348" y="277" font-family="Arial" font-size="28" font-weight="bold" text-anchor="middle" fill="#000000">6</text>
  <text x="436" y="277" font-family="Arial" font-size="28" font-weight="bold" text-anchor="middle" fill="#000000">3</text>
  <text x="172" y="321" font-family="Arial" font-size="28" font-weight="bold" text-anchor="middle" fill="#000000">4</text>
  <text x="304" y="321" font-family="Arial" font-size="28" font-weight="bold" text-anchor="middle" fill="#000000">8</text>
  <text x="392" y="321" font-family="Arial" font-size="28" font-weight="bold" text-anchor="middle" fill="#000000">3</text>
  <text x="480" y="321" font-family="Arial" font-size="28" font-weight="bold" text-anchor="middle" fill="#000000">1</text>
  <text x="172" y="365" font-family="Arial" font-size="28" font-weight="bold" text-anchor="middle" fill="#000000">7</text>
  <text x="304" y="365" font-family="Arial" font-size="28" font-weight="bold" text-anchor="middle" fill="#000000">2</text>
  <text x="392" y="365" font-family="Arial" font-size="28" font-weight="bold" text-anchor="middle" fill="#000000">6</text>
  <text x="260" y="409" font-family="Arial" font-size="28" font-weight="bold" text-anchor="middle" fill="#000000">6</text>
  <text x="392" y="409" font-family="Arial" font-size="28" font-weight="bold" text-anchor="middle" fill="#000000">2</text>
  <text x="480" y="409" font-family="Arial" font-size="28" font-weight="bold" text-anchor="middle" fill="#000000">8</text>
  <text x="304" y="453" font-family="Arial" font-size="28" font-weight="bold" text-anchor="middle" fill="#000000">4</text>
  <text x="392" y="453" font-family="Arial" font-size="28" font-weight="bold" text-anchor="middle" fill="#000000">1</text>
  <text x="480" y="453" font-family="Arial" font-size="28" font-weight="bold" text-anchor="middle" fill="#000000">9</text>
  <text x="216" y="497" font-family="Arial" font-size="28" font-weight="bold" text-anchor="middle" fill="#000000">8</text>
  <text x="348" y="497" font-family="Arial" font-size="28" font-weight="bold" text-anchor="middle" fill="#000000">7</text>
  <text x="436" y="497" font-family="Arial" font-size="28" font-weight="bold" text-anchor="middle" fill="#000000">9</text>
  
  <!-- 텍스트 영역 -->
  <text x="650" y="200" font-family="Arial" font-size="72" font-weight="bold" fill="#FFFFFF">스도쿠 게임</text>
  <text x="650" y="280" font-family="Arial" font-size="48" font-weight="bold" fill="#FFFFFF">Sudoku Game</text>
  
  <!-- 특징 목록 -->
  <text x="650" y="350" font-family="Arial" font-size="32" fill="#FFFFFF">✓ 3가지 난이도</text>
  <text x="650" y="400" font-family="Arial" font-size="32" fill="#FFFFFF">✓ 힌트 시스템</text>
  <text x="650" y="450" font-family="Arial" font-size="32" fill="#FFFFFF">✓ 메모 기능</text>
  <text x="650" y="500" font-family="Arial" font-size="32" fill="#FFFFFF">✓ 타이머 기능</text>
  
  <!-- 기술 스택 -->
  <text x="1000" y="580" font-family="Arial" font-size="24" fill="#FFFFFF">React + TypeScript</text>
</svg>
